<svg width="527" height="122" viewBox="0 0 527 122" fill="none" xmlns="http://www.w3.org/2000/svg">
<path d="M92.16 32.584C92.608 31.304 93.312 30.344 94.272 29.704C95.296 29.064 96.416 28.744 97.632 28.744C99.168 28.744 100.48 29.224 101.568 30.184C102.72 31.144 103.296 32.424 103.296 34.024C103.296 34.6 103.136 35.432 102.816 36.52L82.176 93.64C81.664 94.92 80.8 95.912 79.584 96.616C78.432 97.32 77.152 97.672 75.744 97.672C74.336 97.672 73.024 97.32 71.808 96.616C70.592 95.912 69.76 94.92 69.312 93.64L53.376 48.424L37.152 93.64C36.64 94.92 35.776 95.912 34.56 96.616C33.408 97.32 32.128 97.672 30.72 97.672C29.312 97.672 28 97.32 26.784 96.616C25.632 95.912 24.832 94.92 24.384 93.64L3.744 36.52C3.424 35.56 3.264 34.728 3.264 34.024C3.264 32.424 3.84 31.144 4.992 30.184C6.208 29.224 7.616 28.744 9.216 28.744C10.496 28.744 11.648 29.064 12.672 29.704C13.696 30.344 14.432 31.304 14.88 32.584L31.2 79.528L48 32.872C48.448 31.592 49.184 30.6 50.208 29.896C51.232 29.128 52.352 28.744 53.568 28.744C54.784 28.744 55.904 29.128 56.928 29.896C58.016 30.6 58.784 31.624 59.232 32.968L75.552 80.104L92.16 32.584ZM128.711 97.768C123.911 97.768 119.687 96.776 116.039 94.792C112.455 92.808 109.671 89.96 107.687 86.248C105.703 82.536 104.711 78.216 104.711 73.288C104.711 68.36 105.703 64.072 107.687 60.424C109.671 56.712 112.455 53.864 116.039 51.88C119.687 49.896 123.911 48.904 128.711 48.904C133.511 48.904 137.703 49.896 141.287 51.88C144.935 53.864 147.719 56.712 149.639 60.424C151.623 64.072 152.615 68.36 152.615 73.288C152.615 78.216 151.623 82.536 149.639 86.248C147.719 89.96 144.935 92.808 141.287 94.792C137.703 96.776 133.511 97.768 128.711 97.768ZM128.615 88.456C132.519 88.456 135.495 87.176 137.543 84.616C139.591 82.056 140.615 78.28 140.615 73.288C140.615 68.36 139.591 64.616 137.543 62.056C135.495 59.432 132.551 58.12 128.711 58.12C124.871 58.12 121.895 59.432 119.783 62.056C117.735 64.616 116.711 68.36 116.711 73.288C116.711 78.28 117.735 82.056 119.783 84.616C121.831 87.176 124.775 88.456 128.615 88.456ZM188.729 49.096C190.393 48.968 191.705 49.32 192.665 50.152C193.625 50.984 194.105 52.232 194.105 53.896C194.105 55.624 193.689 56.904 192.857 57.736C192.025 58.568 190.521 59.112 188.345 59.368L185.465 59.656C181.689 60.04 178.905 61.32 177.113 63.496C175.385 65.672 174.521 68.392 174.521 71.656V91.816C174.521 93.672 173.945 95.112 172.793 96.136C171.641 97.096 170.201 97.576 168.473 97.576C166.745 97.576 165.305 97.096 164.153 96.136C163.065 95.112 162.521 93.672 162.521 91.816V54.664C162.521 52.872 163.065 51.496 164.153 50.536C165.305 49.576 166.713 49.096 168.377 49.096C170.041 49.096 171.385 49.576 172.409 50.536C173.433 51.432 173.945 52.744 173.945 54.472V58.312C175.161 55.496 176.953 53.32 179.321 51.784C181.753 50.248 184.441 49.384 187.385 49.192L188.729 49.096ZM241.031 87.688C242.311 88.904 242.951 90.28 242.951 91.816C242.951 93.288 242.407 94.6 241.319 95.752C240.295 96.904 239.079 97.48 237.671 97.48C236.263 97.48 234.951 96.904 233.735 95.752L211.271 75.4V91.816C211.271 93.672 210.695 95.08 209.543 96.04C208.391 97 206.951 97.48 205.223 97.48C203.495 97.48 202.055 97 200.903 96.04C199.815 95.08 199.271 93.672 199.271 91.816V34.504C199.271 32.648 199.815 31.24 200.903 30.28C202.055 29.32 203.495 28.84 205.223 28.84C206.951 28.84 208.391 29.32 209.543 30.28C210.695 31.24 211.271 32.648 211.271 34.504V70.6L231.815 50.92C232.967 49.768 234.279 49.192 235.751 49.192C237.223 49.192 238.503 49.736 239.591 50.824C240.679 51.912 241.223 53.192 241.223 54.664C241.223 56.136 240.615 57.48 239.399 58.696L224.327 72.712L241.031 87.688ZM257.94 97.576C256.084 97.576 254.58 97.032 253.428 95.944C252.34 94.792 251.796 93.256 251.796 91.336V35.176C251.796 33.32 252.308 31.88 253.332 30.856C254.42 29.832 255.892 29.32 257.748 29.32H281.364C288.596 29.32 294.228 31.144 298.26 34.792C302.292 38.376 304.308 43.432 304.308 49.96C304.308 56.488 302.292 61.576 298.26 65.224C294.228 68.872 288.596 70.696 281.364 70.696H264.18V91.336C264.18 93.256 263.604 94.792 262.452 95.944C261.364 97.032 259.86 97.576 257.94 97.576ZM279.828 61.192C288.34 61.192 292.596 57.48 292.596 50.056C292.596 42.632 288.34 38.92 279.828 38.92H264.18V61.192H279.828ZM372.192 97.576C370.464 97.576 369.024 97.096 367.872 96.136C366.784 95.112 366.24 93.672 366.24 91.816V54.76C366.24 52.904 366.784 51.496 367.872 50.536C369.024 49.576 370.464 49.096 372.192 49.096C373.92 49.096 375.36 49.576 376.512 50.536C377.664 51.496 378.24 52.904 378.24 54.76V91.816C378.24 93.672 377.664 95.112 376.512 96.136C375.36 97.096 373.92 97.576 372.192 97.576ZM372.192 40.552C370.016 40.552 368.288 39.976 367.008 38.824C365.728 37.608 365.088 36.04 365.088 34.12C365.088 32.2 365.728 30.664 367.008 29.512C368.288 28.36 370.016 27.784 372.192 27.784C374.304 27.784 376 28.36 377.28 29.512C378.624 30.664 379.296 32.2 379.296 34.12C379.296 36.04 378.656 37.608 377.376 38.824C376.096 39.976 374.368 40.552 372.192 40.552ZM417.879 48.904C423.511 48.904 427.703 50.504 430.455 53.704C433.207 56.904 434.583 61.736 434.583 68.2V91.816C434.583 93.608 434.039 95.016 432.951 96.04C431.927 97.064 430.487 97.576 428.631 97.576C426.775 97.576 425.303 97.064 424.215 96.04C423.127 95.016 422.583 93.608 422.583 91.816V68.872C422.583 65.224 421.879 62.568 420.471 60.904C419.127 59.24 416.983 58.408 414.039 58.408C410.583 58.408 407.799 59.496 405.687 61.672C403.639 63.848 402.615 66.76 402.615 70.408V91.816C402.615 93.608 402.071 95.016 400.983 96.04C399.895 97.064 398.423 97.576 396.567 97.576C394.711 97.576 393.239 97.064 392.151 96.04C391.127 95.016 390.615 93.608 390.615 91.816V54.664C390.615 53 391.159 51.656 392.247 50.632C393.335 49.608 394.807 49.096 396.663 49.096C398.327 49.096 399.671 49.608 400.695 50.632C401.783 51.592 402.327 52.872 402.327 54.472V57.064C403.927 54.44 406.071 52.424 408.759 51.016C411.447 49.608 414.487 48.904 417.879 48.904ZM471.155 88.648C474.355 88.84 475.955 90.28 475.955 92.968C475.955 94.504 475.315 95.688 474.035 96.52C472.819 97.288 471.059 97.608 468.755 97.48L466.163 97.288C455.411 96.52 450.035 90.76 450.035 80.008V59.08H445.235C443.507 59.08 442.163 58.696 441.203 57.928C440.307 57.16 439.859 56.04 439.859 54.568C439.859 53.096 440.307 51.976 441.203 51.208C442.163 50.44 443.507 50.056 445.235 50.056H450.035V41.224C450.035 39.496 450.579 38.12 451.667 37.096C452.755 36.072 454.227 35.56 456.083 35.56C457.875 35.56 459.315 36.072 460.403 37.096C461.491 38.12 462.035 39.496 462.035 41.224V50.056H470.195C471.923 50.056 473.235 50.44 474.131 51.208C475.091 51.976 475.571 53.096 475.571 54.568C475.571 56.04 475.091 57.16 474.131 57.928C473.235 58.696 471.923 59.08 470.195 59.08H462.035V80.872C462.035 85.608 464.211 88.136 468.563 88.456L471.155 88.648Z" fill="#0D47A1"/>
<path d="M332 51C318.766 51 308 61.768 308 75C308 88.234 318.766 99 332 99C345.234 99 356 88.234 356 75C356 61.768 345.234 51 332 51ZM343.846 65.77L333.846 89.77C333.534 90.52 332.802 91 332 91C331.924 91 331.848 90.996 331.772 90.988C330.886 90.886 330.174 90.208 330.028 89.3301L328.262 78.7381L317.672 76.9741C316.792 76.8261 316.116 76.1161 316.014 75.2301C315.91 74.344 316.408 73.498 317.23 73.1541L341.23 63.154C341.972 62.842 342.84 63.012 343.414 63.586C343.986 64.16 344.158 65.022 343.846 65.77Z" fill="#0D47A1"/>
</svg>
